<?xml version="1.0" standalone="no"?>
<!DOCTYPE svg PUBLIC "-//W3C//DTD SVG 20010904//EN"
 "http://www.w3.org/TR/2001/REC-SVG-20010904/DTD/svg10.dtd">
<svg version="1.0" xmlns="http://www.w3.org/2000/svg"
 width="144.000000pt" height="168.000000pt" viewBox="0 0 144.000000 168.000000"
 preserveAspectRatio="xMidYMid meet">

<g transform="translate(0.000000,168.000000) scale(0.100000,-0.100000)"
fill="#000000" stroke="none">
<path d="M453 1368 l-303 -151 0 -366 0 -366 67 -35 c37 -19 71 -36 75 -38 5
-2 8 75 8 172 0 96 3 177 8 179 4 3 107 -5 230 -17 l223 -22 207 22 c114 13
217 23 230 24 22 0 23 -2 20 -97 l-3 -98 -80 -27 c-44 -15 -146 -48 -226 -73
l-146 -47 -144 46 c-80 25 -148 46 -152 46 -4 0 -7 -43 -7 -95 l0 -95 153 -75
152 -75 298 150 297 150 0 220 0 220 -22 4 c-13 3 -86 10 -163 16 -77 6 -183
16 -236 21 -135 14 -219 12 -414 -6 -93 -9 -181 -17 -195 -18 l-25 -2 0 100 0
100 205 62 c113 35 216 66 230 69 17 4 126 -25 320 -85 162 -49 297 -88 302
-85 4 3 8 32 8 65 l0 60 -237 115 c-131 64 -268 131 -305 150 -37 19 -69 34
-70 33 -2 0 -139 -68 -305 -151z"/>
</g>
</svg>
